PathFileType	4	(X/Y/Z)	HSS_walk3.trc
DataRate	CameraRate	NumFrames	NumMarkers	Units	OrigDataRate	OrigDataStartFrame	OrigNumFrames
120.0	120.0	6	44	mm	120.0	621	992
Frame#	Time		R.Shoulder		Offset		L.Shoulder		R.Elbow		R.Wrist.Radial		R.Wrist		R.Hand		L.Elbow		L.Wrist.Radial		L.Wrist		L.Hand		R.Hip		V.Sacral		L.PSIS		L.Hip		R.Thigh.Upper		R.Thigh.Front		R.Thigh.Rear		X.Shell.Lower.Thigh.Right		R.Knee.Lateral		R.Shank.Upper		R.Shank.Front		R.Shank.Rear		X.Shell.Lower.Shank.Right		R.Ankle.Lateral		R.Heel		R.Toe		L.Thigh.Upper		L.Thigh.Front		L.Thigh.Rear		X.Shell.Lower.Thigh.Left		L.Knee.Lateral		L.Shank.Upper		L.Shank.Front		L.Shank.Rear		X.Shell.Lower.Shank.Left		L.Ankle.Lateral		L.Heel		L.Toe		R.Troc		L.Troc		R.PSIS		L.ASIS		R.ASIS
			X1	Y1	Z1	X2	Y2	Z2	X3	Y3	Z3	X4	Y4	Z4	X5	Y5	Z5	X6	Y6	Z6	X7	Y7	Z7	X8	Y8	Z8	X9	Y9	Z9	X10	Y10	Z10	X11	Y11	Z11	X12	Y12	Z12	X13	Y13	Z13	X14	Y14	Z14	X15	Y15	Z15	X16	Y16	Z16	X17	Y17	Z17	X18	Y18	Z18	X19	Y19	Z19	X20	Y20	Z20	X21	Y21	Z21	X22	Y22	Z22	X23	Y23	Z23	X24	Y24	Z24	X25	Y25	Z25	X26	Y26	Z26	X27	Y27	Z27	X28	Y28	Z28	X29	Y29	Z29	X30	Y30	Z30	X31	Y31	Z31	X32	Y32	Z32	X33	Y33	Z33	X34	Y34	Z34	X35	Y35	Z35	X36	Y36	Z36	X37	Y37	Z37	X38	Y38	Z38	X39	Y39	Z39	X40	Y40	Z40	X41	Y41	Z41	X42	Y42	Z42	X43	Y43	Z43	X44	Y44	Z44

621	5.16667	-121.84383	1437.45862	-34.81034	-256.82550	1348.86902	-300.03976	-141.78925	1443.39771	-402.91748	-57.31959	1070.94995	31.05749	163.29654	942.18085	55.27682	185.30257	978.29803	-5.56193	246.10147	920.97772	45.84728	-259.54550	1107.51099	-436.86612	-233.65083	858.08325	-478.96533	-272.78528	887.10101	-532.44922	-268.64658	798.91168	-537.03864	-116.80305	989.26129	-63.93761	-219.82336	974.39124	-230.70999	-215.78674	983.55341	-268.68491	-86.48935	999.05103	-360.32825	-125.58230	647.53070	-44.02072	-96.99694	606.03357	-58.49184	-155.47287	612.98651	-40.02843	-131.75429	576.89001	-56.58424	-218.59705	480.85333	-73.51765	-307.29694	355.27966	-30.05817	-307.83719	304.76520	-56.25671	-353.56100	342.46643	-43.49160	-356.54541	296.88382	-54.44715	-495.28220	121.53578	-106.14588	-553.21356	110.59124	-155.26398	-374.24496	29.45485	-114.31133	72.66952	697.93823	-372.43002	107.26318	660.67737	-344.40216	62.68696	653.30933	-389.51566	97.68342	631.68158	-371.11801	77.00574	502.40573	-349.41690	93.03577	301.02194	-384.11194	123.02137	283.18015	-364.20148	68.20609	257.48767	-373.46219	97.48069	231.60997	-372.04620	134.65417	70.89387	-323.40482	80.53783	33.95032	-276.50882	277.74536	37.24596	-309.40826	-127.92740	839.84943	-31.74470	-43.92394	873.86377	-394.59686	-225.06038	978.36389	-183.70009	-22.40753	968.06366	-308.00607	-55.66522	953.19318	-88.24602
622	5.17500	-110.62965	1439.32410	-36.66125	-245.65726	1350.32214	-302.19247	-130.15341	1444.20105	-404.99750	-49.24123	1072.07117	28.30540	169.64456	940.68958	54.26976	192.54497	976.70184	-6.49069	252.32109	918.68115	45.63443	-246.64482	1107.70154	-437.69427	-220.46451	858.06195	-478.54785	-259.11902	886.82697	-532.39172	-255.43483	798.65790	-536.25806	-104.50249	990.24042	-65.04363	-208.23372	976.24872	-230.99745	-204.48611	985.87030	-269.20618	-75.85432	1001.85095	-361.39786	-111.64434	648.04224	-45.34008	-82.65369	606.93872	-59.41809	-141.18993	613.14728	-41.17415	-117.05786	577.34772	-57.36893	-202.97960	480.78442	-73.76002	-295.32346	357.95740	-30.12065	-296.86252	307.20547	-55.94070	-341.73376	346.34610	-43.80223	-346.11517	300.85651	-54.20797	-488.94583	128.90402	-105.76066	-546.37952	120.54079	-155.28239	-373.44257	29.57687	-114.82536	84.44846	699.79553	-373.98737	119.21186	662.92841	-345.53864	74.24940	654.94226	-390.14783	109.28009	633.63483	-371.74182	88.96277	504.55994	-348.55762	100.15964	301.76227	-384.65512	129.36729	283.33719	-364.01047	74.35246	258.57001	-373.82230	102.75400	232.20941	-372.30450	135.81792	71.23999	-323.13736	81.00807	34.14913	-276.60989	279.00635	36.33186	-309.42328	-115.73804	840.33337	-33.45267	-33.30195	877.21185	-396.54044	-213.44171	979.57550	-184.16232	-10.59399	970.82068	-309.24976	-43.96410	954.19434	-89.75387
623	5.18333	-99.46288	1441.46069	-38.48204	-234.49509	1352.09937	-304.34769	-118.60956	1445.34839	-407.06659	-41.37628	1073.66113	25.53686	175.19531	939.09235	53.09325	199.33826	974.84454	-7.32628	257.73404	916.27106	45.52678	-233.41409	1108.07446	-438.44550	-206.66023	858.45093	-477.80032	-244.94049	886.80237	-532.30359	-241.54794	798.50128	-535.27435	-92.45480	991.70996	-66.26985	-196.82152	978.36023	-231.16182	-193.19165	988.08777	-269.42801	-65.04755	1004.91833	-362.48282	-97.28473	648.83661	-46.27810	-67.56250	607.99042	-60.25158	-126.19955	613.67566	-42.00104	-101.52347	578.00732	-58.04827	-186.02219	480.78928	-73.50000	-282.26773	360.96155	-30.02508	-285.42133	310.29233	-54.79874	-328.95724	350.72186	-44.20350	-334.38654	305.41159	-53.49668	-481.45148	136.89038	-105.62132	-537.74280	131.39943	-155.95844	-372.33197	29.89021	-115.25917	95.64185	701.38580	-374.77884	130.41708	664.60803	-346.17419	85.15015	656.27527	-390.27170	120.10892	634.91370	-371.89661	99.21030	505.64453	-348.15414	106.37163	301.97922	-384.88065	135.08604	283.02499	-363.85721	79.47538	259.32812	-374.50479	107.39720	232.39020	-372.11353	137.04816	71.07035	-322.75867	81.44939	34.36267	-276.43964	279.99222	35.47283	-309.90070	-103.35785	840.91101	-35.28210	-23.08464	880.02966	-397.60669	-201.92343	981.24200	-184.41319	0.96883	973.62012	-310.74564	-32.27404	955.50555	-91.56664
624	5.19167	-88.32774	1443.82910	-40.31075	-223.40341	1354.03015	-306.40671	-107.14304	1446.76294	-409.05350	-33.76746	1075.53931	22.77474	180.38603	937.40466	51.62696	205.58627	972.90643	-8.26347	262.47491	913.45691	45.44521	-219.82953	1108.72986	-439.38431	-192.16083	858.89752	-477.20987	-229.87148	886.97711	-532.08954	-226.84706	798.54608	-533.95435	-80.74963	993.57672	-67.69423	-185.29713	980.55737	-231.68913	-181.92531	990.26147	-270.06256	-53.84344	1007.80396	-363.60886	-82.33704	649.97241	-47.24820	-51.83360	609.44318	-60.65564	-110.62779	614.27216	-42.54961	-85.24338	578.83862	-58.18055	-168.23875	480.84103	-72.65452	-267.99881	364.19949	-29.99732	-272.31519	313.32120	-53.99214	-314.87073	355.05151	-44.75635	-321.29337	309.59378	-54.17634	-472.17688	144.94020	-106.21711	-527.33899	142.56783	-157.65349	-371.44736	29.89792	-115.54203	106.11562	702.26172	-375.17358	140.70433	665.38641	-346.40652	95.19141	657.30615	-390.57718	130.00229	635.74585	-372.08179	107.74880	505.72604	-348.39334	111.70793	302.10956	-384.81458	140.02948	282.73749	-363.82935	83.98643	260.09891	-374.72885	111.51817	232.50047	-371.90616	137.82011	70.87570	-322.37479	81.64262	34.51505	-276.28381	280.70090	34.92528	-309.91696	-91.02286	841.84814	-37.10277	-12.53966	882.31958	-399.51840	-190.39249	983.13617	-184.99585	12.48883	976.29816	-312.24680	-20.77892	957.13275	-93.27900
625	5.20000	-77.39952	1446.35266	-42.09390	-212.27148	1356.10681	-308.63712	-95.43272	1448.48633	-410.95926	-26.31186	1077.66064	19.66271	184.78912	935.56708	50.75951	211.30255	970.87299	-9.21527	266.56995	910.41705	45.15272	-206.16125	1109.47961	-440.23901	-177.05962	859.83331	-476.56268	-214.30801	887.37811	-532.03583	-211.35246	798.80463	-532.79895	-69.29586	995.91705	-69.05219	-173.94597	982.70862	-232.58263	-170.66321	992.24774	-270.99426	-42.54702	1010.73694	-364.87811	-66.97411	651.07434	-47.88957	-35.73850	611.08203	-60.60966	-94.57126	614.98975	-42.77272	-68.59150	579.77893	-57.78892	-149.76031	480.77130	-71.47493	-253.00839	367.25177	-29.71749	-258.14734	316.24823	-52.89214	-299.77075	359.28790	-45.18826	-307.19040	313.83047	-54.34153	-461.25565	153.15323	-107.01717	-514.76086	153.79356	-159.55019	-369.94003	30.20087	-115.83454	115.71274	702.67438	-375.96356	150.16895	665.53735	-347.11792	104.52428	657.74756	-391.13345	139.09734	635.90723	-372.65039	115.05823	505.54993	-348.77841	116.58553	302.27539	-384.53885	144.25885	282.50592	-363.54584	88.02771	260.70807	-374.68396	115.26433	232.66362	-371.67630	138.22960	70.87378	-322.09171	81.69400	34.60604	-276.24051	281.18628	34.30750	-309.54355	-78.57475	842.92816	-38.95905	-1.82740	884.11737	-401.18649	-178.86613	985.37134	-186.07416	23.64225	978.75085	-313.82370	-9.61573	958.85046	-94.77399
626	5.20833	-66.68372	1448.94507	-44.07738	-201.05609	1358.14709	-310.84351	-84.09378	1450.43262	-412.72198	-19.25577	1080.00928	16.86904	188.77596	933.76068	49.45489	216.42886	968.57013	-10.07445	270.12042	907.21521	44.75315	-192.30972	1110.42273	-441.06870	-161.30754	860.80164	-475.81705	-198.31447	887.80377	-531.65802	-195.24303	799.05634	-531.44885	-58.19141	998.30597	-70.42785	-162.84491	984.84338	-234.05902	-159.28334	994.25287	-272.49091	-31.20888	1013.31195	-366.01822	-51.57282	652.29828	-48.03749	-19.30008	612.66766	-60.46742	-78.34046	615.77588	-42.74990	-51.39242	580.97986	-57.07199	-131.01692	480.82935	-70.14461	-237.10846	370.28156	-29.32257	-243.16277	319.04672	-51.96817	-283.80850	363.31396	-45.16143	-292.18723	317.94751	-54.36158	-448.77167	160.82230	-108.02302	-500.27881	164.51421	-161.98912	-368.02603	30.53420	-116.46558	124.61421	702.49884	-376.73431	157.74922	664.69513	-348.18353	112.71043	657.77454	-391.98026	147.23109	635.41168	-373.35257	121.89175	505.58588	-349.12271	120.73466	302.35855	-384.61353	148.29405	281.90970	-363.29318	92.91234	260.96152	-373.41721	118.34587	232.76057	-371.74582	138.76762	70.82430	-321.78815	81.72178	34.63145	-276.19565	281.57285	33.90026	-309.20221	-66.21668	844.01929	-40.83187	8.97183	885.49182	-402.18622	-167.79797	987.41504	-187.30908	34.73571	980.93060	-315.43198	1.75076	961.03717	-96.86112
